<svg width="167" height="113" viewBox="0 0 167 113" fill="none" xmlns="http://www.w3.org/2000/svg">
<g clip-path="url(#clip0)">
<path d="M121.4 62C113 93 84.3 112.2 84.3 112.2C84.3 112.2 69.2 81.2 77.6 50.2C86 19.2 114.7 0 114.7 0C114.7 0 129.8 31 121.4 62Z" fill="#A9B35C"/>
<path d="M45.2001 62C53.6001 93 82.3001 112.2 82.3001 112.2C82.3001 112.2 97.4 81.2 89 50.2C80.6 19.2 51.9001 0 51.9001 0C51.9001 0 36.8001 31 45.2001 62Z" fill="#BCD4CF"/>
<path d="M57.5 55.4C80.5 77.8 83.3 112.2 83.3 112.2C83.3 112.2 48.8 110.3 25.8 87.9C2.8 65.5 0 31.1 0 31.1C0 31.1 34.5 33 57.5 55.4Z" fill="#3F3D56"/>
<path d="M109.1 55.4C86.1 77.8 83.3 112.2 83.3 112.2C83.3 112.2 117.8 110.3 140.8 87.9C163.8 65.5 166.6 31.1 166.6 31.1C166.6 31.1 132.1 33 109.1 55.4Z" fill="#3F3D56"/>
</g>
<defs>
<clipPath id="clip0">
<rect width="166.6" height="112.2" fill="white"/>
</clipPath>
</defs>
</svg>
