<?xml version="1.0" encoding="utf-8"?>
<!-- Generator: Adobe Illustrator 24.2.1, SVG Export Plug-In . SVG Version: 6.00 Build 0)  -->
<svg version="1.1" id="f8e7fb86-f4c5-45a2-a9d6-6001fa0cc87b"
	 xmlns="http://www.w3.org/2000/svg" xmlns:xlink="http://www.w3.org/1999/xlink" x="0px" y="0px" viewBox="0 0 1141 822"
	 style="enable-background:new 0 0 1141 822;" xml:space="preserve">
<style type="text/css">
	.st0{fill:#F2F2F2;}
	.st1{fill:#86A1B7;}
	.st2{fill:#BCD4CF;}
	.st3{fill:#3F3D56;}
	.st4{fill:#FFFFFF;}
	.st5{fill:#F0F0F0;}
	.st6{fill:#2F2E41;}
	.st7{fill:#E6E6E6;}
	.st8{opacity:0.1;enable-background:new    ;}
	.st9{opacity:0.5;fill:#D0CDE1;enable-background:new    ;}
	.st10{fill:#FFB8B8;}
	.st11{fill:#413D3D;}
</style>
<rect x="769" y="657" class="st0" width="140" height="2"/>
<rect x="869" y="658.5" class="st0" width="2" height="18.5"/>
<rect x="808" y="658.5" class="st0" width="2" height="18.5"/>
<rect x="826" y="731" class="st0" width="140" height="2"/>
<rect x="864" y="713" class="st0" width="2" height="18.5"/>
<rect x="925" y="713" class="st0" width="2" height="18.5"/>
<rect y="263" class="st0" width="140" height="2"/>
<rect x="38" y="245" class="st0" width="2" height="18.5"/>
<rect x="99" y="245" class="st0" width="2" height="18.5"/>
<rect y="409" class="st0" width="140" height="2"/>
<rect x="100" y="410.5" class="st0" width="2" height="18.5"/>
<rect x="39" y="410.5" class="st0" width="2" height="18.5"/>
<rect x="768" y="48" class="st0" width="140" height="2"/>
<rect x="806" y="30" class="st0" width="2" height="18.5"/>
<rect x="867" y="30" class="st0" width="2" height="18.5"/>
<rect x="1001" y="155" class="st0" width="140" height="2"/>
<rect x="1039" y="137" class="st0" width="2" height="18.5"/>
<rect x="1100" y="137" class="st0" width="2" height="18.5"/>
<rect x="942" y="410" class="st0" width="140" height="2"/>
<rect x="980" y="392" class="st0" width="2" height="18.5"/>
<rect x="1041" y="392" class="st0" width="2" height="18.5"/>
<rect x="92" y="28" class="st0" width="140" height="2"/>
<rect x="130" y="10" class="st0" width="2" height="18.5"/>
<rect x="191" y="10" class="st0" width="2" height="18.5"/>
<rect x="488" y="80" class="st0" width="140" height="2"/>
<rect x="526" y="62" class="st0" width="2" height="18.5"/>
<rect x="587" y="62" class="st0" width="2" height="18.5"/>
<rect x="556" y="18" class="st0" width="140" height="2"/>
<rect x="594" y="0" class="st0" width="2" height="18.5"/>
<rect x="655" y="0" class="st0" width="2" height="18.5"/>
<rect x="852" y="80" class="st0" width="140" height="2"/>
<rect x="952" y="81.5" class="st0" width="2" height="18.5"/>
<rect x="891" y="81.5" class="st0" width="2" height="18.5"/>
<rect x="931" y="270" class="st0" width="140" height="2"/>
<rect x="1031" y="271.5" class="st0" width="2" height="18.5"/>
<rect x="970" y="271.5" class="st0" width="2" height="18.5"/>
<rect x="276" y="40" class="st0" width="140" height="2"/>
<rect x="376" y="41.5" class="st0" width="2" height="18.5"/>
<rect x="315" y="41.5" class="st0" width="2" height="18.5"/>
<path class="st1" d="M122.8,101.4v153.5c0,0,234.1-43.6,380.9,19.8s349.1,26.5,349.1,26.5V101.4H122.8z"/>
<path class="st2" d="M510.2,329.6c-105.1-41.7-387.5-24.2-387.5-24.2v166.3h730V356C852.8,356,615.4,371.2,510.2,329.6z"/>
<rect x="798" y="421.9" class="st3" width="1.3" height="49.2"/>
<circle class="st3" cx="798.6" cy="421.9" r="7"/>
<path class="st3" d="M798.6,452.2c0,0-1-21.4-21.4-18.9"/>
<path class="st4" d="M162,447.8c4,14.8,17.8,24,17.8,24s7.2-14.9,3.2-29.7s-17.8-24-17.8-24S158,432.9,162,447.8z"/>
<path class="st3" d="M167.9,444.6c11,10.7,12.4,27.2,12.4,27.2s-16.5-0.9-27.5-11.6s-12.4-27.2-12.4-27.2S156.9,433.8,167.9,444.6z"
	/>
<path class="st4" d="M465.1,421.5c-8.4,31-37.1,50.2-37.1,50.2s-15.1-31-6.7-62s37.1-50.2,37.1-50.2S473.4,390.5,465.1,421.5z"/>
<path class="st4" d="M388.8,421.5c8.4,31,37.1,50.2,37.1,50.2s15.1-31,6.7-62s-37.1-50.2-37.1-50.2S380.4,390.5,388.8,421.5z"/>
<path class="st3" d="M401.1,414.9c23,22.4,25.8,56.8,25.8,56.8s-34.5-1.9-57.5-24.3s-25.8-56.8-25.8-56.8S378.1,392.5,401.1,414.9z"
	/>
<path class="st3" d="M452.8,414.9c-23,22.4-25.8,56.8-25.8,56.8s34.5-1.9,57.5-24.3s25.8-56.8,25.8-56.8S475.8,392.5,452.8,414.9z"
	/>
<path class="st5" d="M546.1,471.8c-4.4,0-7.9-3.6-7.9-7.9s3.6-7.9,7.9-7.9c4.4,0,7.9,3.6,7.9,7.9c0,0,0,0,0,0
	C554,468.3,550.4,471.8,546.1,471.8z M546.1,457.3c-3.7,0-6.6,3-6.6,6.6c0,3.7,3,6.6,6.6,6.6c3.7,0,6.6-3,6.6-6.6v0
	C552.7,460.2,549.7,457.3,546.1,457.3z"/>
<path class="st3" d="M737.1,348.8c-4.4,0-7.9-3.6-7.9-7.9s3.6-7.9,7.9-7.9c4.4,0,7.9,3.6,7.9,7.9
	C745.1,345.3,741.5,348.8,737.1,348.8z M737.1,334.3c-3.7,0-6.6,3-6.6,6.6c0,3.7,3,6.6,6.6,6.6c3.7,0,6.6-3,6.6-6.6v0
	C743.8,337.3,740.8,334.3,737.1,334.3z"/>
<path class="st3" d="M197.5,341.8h-13.1v-13.1h13.1V341.8z M185.4,340.8h11v-11h-11V340.8z"/>
<path class="st3" d="M385.3,286.9h-13.1v-13.1h13.1V286.9z M373.2,285.9h11v-11h-11V285.9z"/>
<circle class="st5" cx="729.3" cy="452.4" r="6.7"/>
<path class="st6" d="M729.3,471.7c-10.6,0-19.3-8.6-19.3-19.3c0-10.6,8.6-19.3,19.3-19.3c10.6,0,19.3,8.6,19.3,19.3c0,0,0,0,0,0
	C748.5,463.1,739.9,471.7,729.3,471.7z M729.3,434.7c-9.8,0-17.8,8-17.8,17.8s8,17.8,17.8,17.8c9.8,0,17.8-8,17.8-17.8
	C747.1,442.6,739.1,434.7,729.3,434.7z"/>
<path class="st7" d="M582.8,272.7c0.6,0.6,1.3,1.2,2,1.8l-0.6,0.7c-0.7-0.6-1.3-1.2-2-1.9L582.8,272.7z"/>
<path class="st7" d="M691.6,156.9c0.9,0.8,1.8,1.7,2.6,2.5l-0.6,0.6c-1.3-1.3-2.6-2.5-4-3.7l0.6-0.7
	C690.7,156.1,691.2,156.5,691.6,156.9z M686,152.2l-0.5,0.7c-1.4-1.1-2.9-2.1-4.4-3.1l0.5-0.8C683,150.1,684.5,151.1,686,152.2z
	 M698,163.4c1.2,1.4,2.4,2.8,3.5,4.2l-0.7,0.5c-1.1-1.4-2.2-2.8-3.4-4.2L698,163.4z M676.8,146.2l-0.4,0.8c-1.6-0.9-3.2-1.7-4.8-2.5
	l0.4-0.8C673.6,144.5,675.2,145.3,676.8,146.2z M704.7,172.1c1,1.5,2,3.1,2.9,4.7l-0.8,0.4c-0.9-1.6-1.8-3.1-2.8-4.6L704.7,172.1z
	 M666.9,141.6l-0.3,0.8c-1.7-0.7-3.4-1.3-5.1-1.8l0.3-0.9C663.5,140.3,665.2,140.9,666.9,141.6L666.9,141.6z M710,181.6
	c0.8,1.6,1.5,3.3,2.2,5l-0.8,0.3c-0.7-1.7-1.4-3.3-2.2-5L710,181.6z M656.5,138.3l-0.2,0.9c-1.7-0.4-3.5-0.8-5.3-1.1l0.1-0.9
	C652.9,137.5,654.7,137.9,656.5,138.3L656.5,138.3z M714.1,191.8c0.6,1.7,1,3.5,1.5,5.3l-0.9,0.2c-0.4-1.7-0.9-3.5-1.5-5.2
	L714.1,191.8z M645.7,136.5l-0.1,0.9c-1.8-0.2-3.6-0.3-5.4-0.3l0-0.9C642,136.2,643.9,136.3,645.7,136.5z M716.7,202.5
	c0.3,1.8,0.6,3.6,0.7,5.4l-0.9,0.1c-0.2-1.8-0.4-3.6-0.7-5.4L716.7,202.5z M634.7,136.2l0,0.9c-1.8,0.1-3.6,0.2-5.4,0.4l-0.1-0.9
	C631.1,136.4,632.9,136.3,634.7,136.2L634.7,136.2z M717.8,213.4c0.1,1.8,0.1,3.7,0,5.5l-0.9,0c0.1-1.8,0.1-3.6,0-5.4L717.8,213.4z
	 M623.8,137.4l0.2,0.9c-1.8,0.3-3.6,0.7-5.3,1.1l-0.2-0.9C620.3,138.1,622.1,137.7,623.8,137.4L623.8,137.4z M717.4,224.3
	c-0.2,1.8-0.4,3.6-0.7,5.4l-0.9-0.2c0.3-1.8,0.6-3.6,0.7-5.4L717.4,224.3z M613.2,140l0.3,0.9c-1.7,0.6-3.4,1.2-5.1,1.8l-0.3-0.8
	C609.7,141.2,611.5,140.6,613.2,140z M715.5,235.1c-0.4,1.8-0.9,3.5-1.5,5.3l-0.9-0.3c0.5-1.7,1-3.5,1.5-5.2L715.5,235.1z
	 M603,144.1l0.4,0.8c-1.6,0.8-3.2,1.6-4.8,2.5l-0.4-0.8C599.8,145.8,601.4,144.9,603,144.1L603,144.1z M712.2,245.5
	c-0.7,1.7-1.4,3.4-2.2,5l-0.8-0.4c0.8-1.6,1.5-3.3,2.2-5L712.2,245.5z M593.5,149.5l0.5,0.7c-1.5,1-3,2.1-4.4,3.2l-0.5-0.7
	C590.5,151.6,592,150.6,593.5,149.5L593.5,149.5z M707.5,255.4c-0.9,1.6-1.9,3.2-2.9,4.7l-0.7-0.5c1-1.5,1.9-3.1,2.8-4.6
	L707.5,255.4z M584.9,156.2l0.6,0.7c-1.3,1.2-2.7,2.4-3.9,3.7l-0.6-0.6C582.2,158.7,583.5,157.4,584.9,156.2z M701.5,264.5
	c-1.1,1.4-2.3,2.9-3.5,4.2l-0.7-0.6c1.2-1.4,2.3-2.8,3.4-4.2L701.5,264.5z M577.9,164.6c-1.2,1.4-2.3,2.8-3.4,4.2l-0.7-0.5
	c1.1-1.5,2.2-2.9,3.4-4.3L577.9,164.6z M571.4,173.3c-1,1.5-1.9,3.1-2.8,4.7l-0.8-0.4c0.9-1.6,1.8-3.2,2.8-4.7L571.4,173.3z
	 M566.2,182.8c-0.8,1.6-1.5,3.3-2.1,5l-0.8-0.3c0.6-1.7,1.4-3.4,2.1-5L566.2,182.8z M562.3,192.9c-0.5,1.7-1,3.5-1.4,5.2l-0.9-0.2
	c0.4-1.8,0.9-3.5,1.4-5.3L562.3,192.9z M559.9,203.4c-0.3,1.8-0.5,3.6-0.7,5.4l-0.9-0.1c0.2-1.8,0.4-3.6,0.7-5.4L559.9,203.4z
	 M558.9,214.2c0,1.8,0,3.6,0.1,5.4l-0.9,0c-0.1-1.8-0.1-3.7-0.1-5.5L558.9,214.2z M559.4,225c0.2,1.8,0.5,3.6,0.8,5.4l-0.9,0.2
	c-0.3-1.8-0.6-3.6-0.8-5.4L559.4,225z M561.3,235.7c0.4,1.7,1,3.5,1.5,5.2l-0.9,0.3c-0.6-1.7-1.1-3.5-1.5-5.3L561.3,235.7z
	 M564.7,246c0.7,1.7,1.4,3.3,2.2,4.9l-0.8,0.4c-0.8-1.6-1.6-3.3-2.2-5L564.7,246z M569.5,255.7c0.9,1.6,1.9,3.1,2.9,4.6l-0.7,0.5
	c-1-1.5-2-3.1-2.9-4.6L569.5,255.7z M575.6,264.7c1.1,1.4,2.3,2.8,3.5,4.1l-0.7,0.6c-1.2-1.4-2.4-2.8-3.5-4.2L575.6,264.7z"/>
<path class="st7" d="M693.5,272.2l0.6,0.6c-0.6,0.6-1.3,1.3-2,1.9l-0.6-0.7C692.2,273.5,692.9,272.8,693.5,272.2z"/>
<path class="st3" d="M644.1,471.1c-0.2-0.3-4.3-7.2-5.7-21.4c-1.3-13.1-0.5-35.1,11-65.9c21.7-58.3-5-105.3-5.3-105.8l1.3-0.8
	c0.1,0.1,6.9,12.1,11,31.2c5.4,25.3,3.4,51.6-5.6,75.9c-21.6,58.2-5.5,85.7-5.4,86L644.1,471.1z"/>
<circle class="st4" cx="635.6" cy="264.7" r="9.9"/>
<circle class="st3" cx="666.8" cy="301.2" r="9.9"/>
<circle class="st3" cx="645.5" cy="325.5" r="9.9"/>
<circle class="st3" cx="671.3" cy="346.1" r="9.9"/>
<circle class="st4" cx="637.9" cy="378" r="9.9"/>
<path class="st3" d="M650.1,471.5c0,0-9.9-24.3,19.8-42.6L650.1,471.5z"/>
<path class="st3" d="M637.9,471.1c0,0-4.5-25.9-39.3-25.6L637.9,471.1z"/>
<path class="st3" d="M265.9,471.1c-0.2-0.3-4.3-7.2-5.7-21.4c-1.3-13.1-0.5-35.1,11-65.9c21.7-58.3-5-105.3-5.3-105.8l1.3-0.8
	c0.1,0.1,6.9,12.1,11,31.2c5.4,25.3,3.4,51.6-5.6,75.9c-21.6,58.2-5.5,85.7-5.4,86L265.9,471.1z"/>
<circle class="st3" cx="257.4" cy="264.7" r="9.9"/>
<circle class="st3" cx="288.6" cy="301.2" r="9.9"/>
<circle class="st4" cx="267.3" cy="325.5" r="9.9"/>
<circle class="st4" cx="293.1" cy="346.1" r="9.9"/>
<circle class="st3" cx="259.7" cy="378" r="9.9"/>
<path class="st3" d="M271.8,471.5c0,0-9.9-24.3,19.8-42.6L271.8,471.5z"/>
<path class="st3" d="M259.7,471.1c0,0-4.5-25.9-39.3-25.6L259.7,471.1z"/>
<path class="st7" d="M462.2,153.7H355.4l0.4-1.3c0.1-0.2,7.9-22.9,42.5-18.5c3.3-1.1,35.1-11.5,54.2,0.2c8.5,5.2,12.8,10,12.8,14.3
	c0,2.1-1.1,4-2.8,5.2L462.2,153.7z M358.3,151.7h103.3c1.1-0.8,1.7-2.1,1.7-3.4c0-2.5-2.1-6.6-11.8-12.6c-18.9-11.6-52.4,0-52.7,0.1
	l-0.2,0.1l-0.2,0C370.1,132.2,360.6,147.1,358.3,151.7z"/>
<path class="st7" d="M817.7,199.2h-72.4l0.4-1.3c0.1-0.2,5.4-15.7,28.9-12.7c2.6-0.9,23.9-7.7,36.7,0.2c5.8,3.6,8.7,6.9,8.7,9.9
	c0,1.5-0.8,2.9-2.1,3.8L817.7,199.2z M748.2,197.2h68.9c0.6-0.5,0.9-1.2,0.9-2c0-1.3-1-4.1-7.8-8.2c-12.6-7.7-35,0-35.2,0.1
	l-0.2,0.1l-0.2,0C756.6,184.8,750,193.7,748.2,197.2z"/>
<path class="st7" d="M514.2,225.4h-72.4l0.4-1.3c0.1-0.2,5.4-15.7,28.9-12.7c2.6-0.9,23.9-7.7,36.7,0.2c5.8,3.6,8.7,6.9,8.7,9.9
	c0,1.5-0.8,2.9-2.1,3.8L514.2,225.4z M444.7,223.4h68.9c0.6-0.5,0.9-1.2,0.9-2c0-1.3-1-4.1-7.8-8.2c-12.6-7.7-35,0-35.2,0.1
	l-0.2,0.1l-0.2,0C453.1,211.1,446.5,220,444.7,223.4L444.7,223.4z"/>
<circle class="st8" cx="191.2" cy="160.6" r="29.4"/>
<path class="st7" d="M196.1,192.4c-21.4,0-38.7-17.3-38.7-38.7s17.3-38.7,38.7-38.7s38.7,17.3,38.7,38.7c0,0,0,0,0,0
	C234.8,175,217.5,192.4,196.1,192.4z M196.1,117c-20.3,0-36.7,16.4-36.7,36.7s16.4,36.7,36.7,36.7s36.7-16.4,36.7-36.7c0,0,0,0,0,0
	C232.8,133.4,216.4,117,196.1,117z"/>
<path class="st3" d="M87.8,71.6v437h798v-437L87.8,71.6z M847.8,470.6h-722v-361h722V470.6z"/>
<path class="st9" d="M273.9,470.6l18.3,38H120.4l3.4-399h271.9c0,0-69.7,150.2-183.9,232L273.9,470.6z"/>
<path class="st9" d="M697.6,470.6l-18.3,38h171.9l-3.3-399H575.9c0,0,69.7,150.2,183.9,232L697.6,470.6z"/>
<rect x="112.8" y="328.6" class="st3" width="112" height="19"/>
<rect x="749.8" y="328.6" class="st3" width="112" height="19"/>
<path class="st10" d="M985.3,350.6l-4,94l-25,94c0,0-26,46-6,46s26-43,26-43l32-88l6-81L985.3,350.6z"/>
<path class="st10" d="M928.3,701.6l2,72h20l8-46c0,0,7-19,7-20S928.3,701.6,928.3,701.6z"/>
<path class="st6" d="M953.3,769.6h-25c0,0-10,15-12,15s-31,1-13,14s35,7,35,7v12c0,0,20,10,21,0c0-0.1,0-0.2,0-0.3
	c1-10.8-0.5-21.7-4.4-31.8C952.5,779.2,950.6,771.8,953.3,769.6z"/>
<path class="st10" d="M992.7,696.1l23,68.3l19.1-5.9l-5.8-46.3c0,0,1.1-20.2,0.8-21.2S992.7,696.1,992.7,696.1z"/>
<path class="st6" d="M1036.6,753.8l-23.9,7.3c0,0-5.2,17.3-7.1,17.9s-29.3,10-8.3,17.2s35.5-3.6,35.5-3.6l3.5,11.5
	c0,0,22.1,3.7,20.1-6.2c0-0.1,0-0.2-0.1-0.3c-2.2-10.6-6.9-20.5-13.5-29.1C1038.7,763.2,1034.6,756.7,1036.6,753.8z"/>
<circle class="st10" cx="949.8" cy="297.1" r="29"/>
<path class="st10" d="M944.3,317.6c0,0,18,25,14,31s43-5,43-5s-29-33-28-39S944.3,317.6,944.3,317.6z"/>
<path class="st11" d="M982.3,334.6c0,0-24,0-32,10s-17,31-17,31s-8.5,3.2-11.6,20c-2.1,12.1-0.3,24.6,5.2,35.6
	c5,10.4,10.9,25.1,5.9,28.9c-8,6-31,55-31,137c0,45.7-13.2,77.3-24.9,96.3c-9.8,15.9,4,35.8,22.3,32.4c0.4-0.1,0.7-0.1,1.1-0.2
	c36-7,141-20,141-20l-29-71c0,0-14-23-5-59s-16-102-16-102s33.5-75.5,27.5-92.5s-13.5-51.5-20.5-50.5
	C992.8,331.5,987.5,332.9,982.3,334.6z"/>
<path class="st10" d="M950.3,350.6l-4,94l-25,94c0,0-26,46-6,46s26-43,26-43l32-88l6-81L950.3,350.6z"/>
<path class="st2" d="M968.3,340.6c0,0-22,0-25,10s-3.6,11.5-3.6,11.5s8.6-11.5,19.6,5.5s25,21,25,21S987.3,348.6,968.3,340.6z"/>
<circle class="st6" cx="969.8" cy="280.1" r="40"/>
<path class="st6" d="M963.5,312.7c-20.3-5.9-32.5-26.6-27.8-47.2c-0.3,0.8-0.5,1.6-0.8,2.4c-6.2,21.2,6,43.4,27.2,49.6
	c21.2,6.2,43.4-6,49.6-27.2c0.2-0.8,0.4-1.6,0.6-2.4C1005.1,307.7,983.7,318.6,963.5,312.7z"/>
<ellipse class="st10" cx="939.8" cy="302.1" rx="3" ry="5"/>
<circle class="st6" cx="984.8" cy="240.1" r="14"/>
<path class="st6" d="M967.8,237.1c0-7.2,5.4-13.2,12.5-13.9c-7.7-0.8-14.6,4.7-15.4,12.4c-0.8,7.7,4.7,14.6,12.4,15.4
	c1,0.1,2,0.1,3,0C973.1,250.2,967.8,244.2,967.8,237.1z"/>
<path class="st6" d="M936.8,264.1c-9.9,0-18,8.1-18,18h36C954.8,272.2,946.7,264.1,936.8,264.1z"/>
<rect x="610" y="620" class="st0" width="140" height="2"/>
<rect x="648" y="602" class="st0" width="2" height="18.5"/>
<rect x="709" y="602" class="st0" width="2" height="18.5"/>
<rect x="508" y="573" class="st0" width="140" height="2"/>
<rect x="546" y="555" class="st0" width="2" height="18.5"/>
<rect x="607" y="555" class="st0" width="2" height="18.5"/>
<rect x="175" y="686" class="st0" width="140" height="2"/>
<rect x="213" y="668" class="st0" width="2" height="18.5"/>
<rect x="274" y="668" class="st0" width="2" height="18.5"/>
<rect x="346" y="639" class="st0" width="140" height="2"/>
<rect x="446" y="640.5" class="st0" width="2" height="18.5"/>
<rect x="385" y="640.5" class="st0" width="2" height="18.5"/>
<rect x="127" y="586" class="st0" width="140" height="2"/>
<rect x="227" y="587.5" class="st0" width="2" height="18.5"/>
<rect x="166" y="587.5" class="st0" width="2" height="18.5"/>
<rect x="403" y="713" class="st0" width="140" height="2"/>
<rect x="441" y="695" class="st0" width="2" height="18.5"/>
<rect x="502" y="695" class="st0" width="2" height="18.5"/>
</svg>
